<?xml version="1.0" encoding="UTF-8" standalone="no"?>
<svg
   xmlns:dc="http://purl.org/dc/elements/1.1/"
   xmlns:cc="http://creativecommons.org/ns#"
   xmlns:rdf="http://www.w3.org/1999/02/22-rdf-syntax-ns#"
   xmlns:svg="http://www.w3.org/2000/svg"
   xmlns="http://www.w3.org/2000/svg"
   version="1.1"
   id="svg2"
   viewBox="0 0 744.09448819 1052.3622047"
   height="297mm"
   width="210mm">
  <defs
     id="defs4" />
  <metadata
     id="metadata7">
    <rdf:RDF>
      <cc:Work
         rdf:about="">
        <dc:format>image/svg+xml</dc:format>
        <dc:type
           rdf:resource="http://purl.org/dc/dcmitype/StillImage" />
        <dc:title></dc:title>
      </cc:Work>
    </rdf:RDF>
  </metadata>
  <g
     style="display:inline"
     id="layer1">
    <g
       transform="matrix(1.589254,0,0,1.589254,-31.192333,44.648414)"
       id="g4227">
      <path
         style="fill:#b3b3b3"
         d="m 251.075,503.869 19.101,0 17.988,0 19.111,0 0,-11.244 c 0,-10.554 -8.555,-19.109 -19.109,-19.109 l -0.002,0 0,-74.186 -37.088,0"
         id="path4137" />
      <polygon
         style="fill:#999999"
         points="252.214,473.52 252.214,503.873 267.386,503.873 267.386,473.52 267.386,399.326 252.214,399.326 "
         id="polygon4139" />
      <path
         style="fill:#b3b3b3"
         d="m 327.597,104.237 0,104.454 c 0,9.189 -5.624,17.057 -13.611,20.351 -2.59,1.073 -5.429,1.658 -8.398,1.658 l -104.108,0 c -12.159,0 -22.009,-9.85 -22.009,-22.009 l 0,-104.454 148.126,0 z"
         id="path4141" />
      <path
         style="fill:#999999"
         d="m 215.231,208.693 0,-104.457 -35.761,0 0,104.456 c 0,12.157 9.855,22.01 22.01,22.01 l 35.761,0 c -12.156,0.002 -22.01,-9.853 -22.01,-22.009 z"
         id="path4143" />
      <g
         id="g4145">
        <polygon
           style="fill:#b3b3b3"
           points="327.598,104.236 179.47,104.236 238.14,41.004 268.928,41.004 "
           id="polygon4147" />
        <polyline
           style="fill:#b3b3b3"
           points="238.135,40.999 238.135,8.127 268.928,8.127 268.928,40.999  "
           id="polyline4149" />
        <path
           style="fill:#b3b3b3"
           d="m 275.045,230.704 -43.456,0 c -25.251,0 -45.721,20.47 -45.721,45.721 l 0,102.936 c 0,11.026 8.939,19.965 19.965,19.965 l 94.967,0 c 11.026,0 19.965,-8.939 19.965,-19.965 l 0,-102.936 c 0.001,-25.252 -20.47,-45.721 -45.72,-45.721 z"
           id="path4151" />
      </g>
      <g
         id="g4153">
        <path
           style="fill:#999999"
           d="m 218.377,379.361 0,-102.936 c 0,-25.251 20.47,-45.721 45.721,-45.721 l -32.51,0 c -25.251,0 -45.721,20.47 -45.721,45.721 l 0,102.936 c 0,11.026 8.939,19.965 19.965,19.965 l 32.51,0 c -11.026,0 -19.965,-8.939 -19.965,-19.965 z"
           id="path4155" />
        <polyline
           style="fill:#999999"
           points="252.218,41.004 215.231,104.236 179.47,104.236 238.135,40.999  "
           id="polyline4157" />
      </g>
      <polyline
         style="fill:#cccccc"
         points="254.85,41.004 291.837,104.236 327.598,104.236 268.932,40.999 "
         id="polyline4159" />
      <path
         style="fill:#b3b3b3"
         d="m 251.07,473.52 0,-74.194 -37.097,0 0,74.194 0,30.352 37.097,0 19.109,0 0,-11.242 c 0,-10.554 -8.555,-19.11 -19.109,-19.11 l 0,0 z"
         id="path4161" />
      <polygon
         style="fill:#999999"
         points="213.973,473.52 213.973,503.873 229.144,503.873 229.144,473.52 229.144,399.326 213.973,399.326 "
         id="polygon4163" />
      <path
         style="fill:#cccccc"
         d="m 313.986,104.237 0,124.805 c -2.59,1.073 -5.429,1.658 -8.398,1.658 l -12.451,0 0,-126.463 20.849,0 z"
         id="path4165" />
      <g
         id="g4167">
        <circle
           style="fill:#b3b3b3"
           cx="145.13699"
           cy="299.15601"
           r="16.330999"
           id="circle4169" />
        <circle
           style="fill:#b3b3b3"
           cx="137.42101"
           cy="381.883"
           r="16.330999"
           id="circle4171" />
        <circle
           style="fill:#b3b3b3"
           cx="366.875"
           cy="299.15601"
           r="16.330999"
           id="circle4173" />
        <circle
           style="fill:#b3b3b3"
           cx="374.57999"
           cy="381.883"
           r="16.330999"
           id="circle4175" />
      </g>
      <path
         d="m 273.07,162.39 c 4.49,0 8.127,-3.639 8.127,-8.127 l 0,-11.242 c 0,-4.489 -3.638,-8.127 -8.127,-8.127 -4.49,0 -8.127,3.639 -8.127,8.127 l 0,11.242 c 0,4.488 3.638,8.127 8.127,8.127 z"
         id="path4177" />
      <path
         d="m 211.261,165.156 c -3.46,0.721 -6.127,3.609 -6.499,7.133 -0.359,3.395 1.532,6.717 4.609,8.179 3.172,1.507 7.083,0.755 9.458,-1.837 2.198,-2.399 2.744,-5.969 1.384,-8.919 -1.547,-3.353 -5.323,-5.286 -8.952,-4.556 z"
         id="path4179" />
      <path
         d="m 265.12,292.789 c 7.375,0 10.924,-9.533 5.254,-14.321 -2.62,-2.212 -6.487,-2.546 -9.429,-0.77 -2.98,1.797 -4.531,5.401 -3.738,8.8 0.847,3.632 4.176,6.291 7.913,6.291 z"
         id="path4181" />
      <path
         d="m 259.375,367.974 c 4.988,5.022 13.89,1.335 13.872,-5.743 -0.02,-7.605 -10.007,-10.992 -14.602,-4.905 -2.412,3.193 -2.113,7.823 0.73,10.648 z"
         id="path4183" />
      <path
         d="m 257.154,321.658 c 1.318,7.039 10.908,8.781 14.767,2.859 3.959,-6.075 -1.77,-14.057 -8.779,-12.321 -4.123,1.021 -6.855,5.284 -5.988,9.462 z"
         id="path4185" />
      <path
         d="m 306.435,162.39 c 4.49,0 8.127,-3.639 8.127,-8.127 l 0,-11.242 c 0,-4.489 -3.638,-8.127 -8.127,-8.127 -4.489,0 -8.127,3.639 -8.127,8.127 l 0,11.242 c 0,4.488 3.638,8.127 8.127,8.127 z"
         id="path4187" />
      <path
         d="m 394.132,367.209 c 0.104,-0.518 0.159,-1.053 0.159,-1.603 0,-18.878 -3.041,-35.775 -9.04,-50.337 4.426,-5.042 6.823,-11.907 5.876,-19.313 -1.403,-10.98 -10.269,-19.765 -21.259,-21.082 -4.854,-0.582 -9.471,0.273 -13.488,2.189 -8.652,-6.685 -18.738,-12.024 -29.642,-15.688 -2.621,-8.99 -7.523,-17.013 -14.042,-23.398 13.198,-3.204 23.03,-15.114 23.03,-29.283 l 0,-104.458 c 0,-0.026 -0.008,-0.051 -0.009,-0.077 -0.02,-1.985 -0.756,-3.938 -2.161,-5.452 l -56.501,-60.895 0,-29.685 C 277.055,3.638 273.416,0 268.928,0 l -30.792,0 c -4.489,0 -8.127,3.639 -8.127,8.127 l 0,22.74 c -8.627,-7.905 -20.132,-12.148 -32.342,-11.459 -22.118,1.248 -40.135,19.114 -41.539,41.223 -0.937,14.752 5.316,28.636 16.824,37.666 0.187,0.147 0.39,0.257 0.586,0.385 l -0.025,0.027 c -0.021,0.022 -0.036,0.05 -0.055,0.074 -1.31,1.442 -2.114,3.353 -2.114,5.454 l 0,104.456 c 0,14.044 9.658,25.875 22.681,29.203 -7.086,6.911 -12.277,15.748 -14.717,25.661 -7.574,3.048 -15.785,7.366 -23.698,13.5 -4.016,-1.912 -8.629,-2.764 -13.481,-2.181 -10.987,1.32 -19.851,10.105 -21.253,21.082 -0.946,7.405 1.451,14.27 5.877,19.312 -5.999,14.561 -9.039,31.458 -9.039,50.337 0,0.548 0.056,1.084 0.159,1.602 -3.591,4.771 -5.482,10.893 -4.755,17.456 1.245,11.233 10.287,20.281 21.519,21.529 14.73,1.637 27.247,-9.899 27.247,-24.304 0,-13.487 -10.972,-24.46 -24.459,-24.46 -1.1,0 -2.181,0.08 -3.243,0.221 0.67,-12.747 2.977,-24.258 6.886,-34.379 1.323,0.222 2.679,0.344 4.064,0.344 13.487,0 24.46,-10.972 24.46,-24.46 0,-3.752 -0.851,-7.307 -2.367,-10.487 3.481,-2.544 7.024,-4.691 10.516,-6.5 l 0,31.218 c 0,4.451 3.43,8.331 7.878,8.464 4.602,0.138 8.377,-3.552 8.377,-8.124 l 0,-37.301 c 0.245,-0.323 0.469,-0.62 0.715,-0.943 9.136,-2.585 15.644,-2.931 15.764,-2.937 4.485,-0.18 7.975,-3.961 7.796,-8.446 -0.18,-4.485 -3.939,-7.957 -8.446,-7.796 -0.463,0.018 -4.576,0.216 -10.831,1.428 6.495,-11.282 18.668,-18.901 32.594,-18.901 l 14.934,0.005 c 21.707,0 39.303,17.597 39.303,39.303 l 0,113.06 -34.755,0 -37.097,0 -8.139,0 c -6.538,0 -11.838,-5.3 -11.838,-11.838 l 0,-40.372 c 0,-4.451 -3.43,-8.331 -7.878,-8.464 -4.602,-0.138 -8.377,3.552 -8.377,8.124 l 0,40.711 c 0,15.516 12.578,28.093 28.093,28.093 l 0.011,0 0,96.419 c 0,4.489 3.639,8.127 8.127,8.127 l 93.302,-0.003 c 4.489,0 8.127,-3.639 8.127,-8.127 l 0,-11.244 c 0,-12.189 -8.049,-22.534 -19.111,-25.999 l 0,-24.487 c 0,-4.489 -3.639,-8.127 -8.127,-8.127 l 0,0 c -4.489,0 -8.127,3.639 -8.127,8.127 l 10e-4,23.249 -20.84,0 0,-57.928 20.838,0 0,8.334 c 0,4.451 3.43,8.331 7.878,8.465 4.602,0.138 8.377,-3.552 8.377,-8.124 l 0,-8.677 4.509,0 c 15.516,0 28.094,-12.578 28.094,-28.094 l 0,-99.76 c 5.052,2.202 10.525,5.157 15.882,9.075 -1.513,3.178 -2.363,6.732 -2.363,10.48 0,13.487 10.972,24.46 24.459,24.46 1.385,0 2.742,-0.121 4.065,-0.345 3.909,10.122 6.216,21.633 6.886,34.379 -1.062,-0.141 -2.143,-0.221 -3.243,-0.221 -14.408,0 -25.948,12.523 -24.304,27.256 1.252,11.221 10.287,20.256 21.509,21.507 14.733,1.644 27.256,-9.895 27.256,-24.304 0,-5.507 -1.83,-10.59 -4.908,-14.682 z M 145.63,381.888 c 0,4.524 -3.68,8.205 -8.204,8.205 -4.525,0 -8.205,-3.68 -8.205,-8.205 0,-4.525 3.68,-8.206 8.205,-8.206 4.523,0 8.204,3.682 8.204,8.206 z m -0.499,-74.529 c -4.524,0 -8.204,-3.68 -8.204,-8.205 0,-4.525 3.68,-8.205 8.204,-8.205 4.525,0 8.205,3.68 8.205,8.205 0,4.525 -3.68,8.205 -8.205,8.205 z m 96.787,-194.995 77.552,0 0,74.801 -62.787,0 c -3.883,0 -7.042,-3.159 -7.042,-7.043 l 0,-13.948 c 0,-17.25 -14.033,-31.283 -31.284,-31.283 l -30.76,0 0,-22.528 27.633,0 c 4.49,0 8.127,-3.639 8.127,-8.127 0,-4.488 -3.638,-8.127 -8.127,-8.127 l -17.134,0 43.589,-46.979 23.695,0 43.589,46.979 -67.053,0 c -4.49,0 -8.127,3.639 -8.127,8.127 0,4.488 3.64,8.128 8.129,8.128 z m 18.882,-96.109 0,16.62 -14.537,0 0,-16.62 14.537,0 z M 182.986,85.51 C 176.189,80.175 172.29,72.164 172.29,63.528 c 0,-15.404 12.537,-27.937 27.949,-27.937 8.681,0 16.67,3.939 21.942,10.664 l -37.769,40.707 c -0.408,-0.529 -0.878,-1.021 -1.426,-1.452 z m 18.494,137.067 c -7.655,0 -13.884,-6.228 -13.884,-13.883 l 0,-57.546 30.76,0 c 8.287,0 15.029,6.741 15.029,15.028 l 0,13.948 c 0,12.846 10.451,23.298 23.297,23.298 l 62.787,0 0,5.273 c 0,7.655 -6.228,13.883 -13.884,13.883 l -104.105,0 0,-0.001 z m 20.619,259.065 28.866,0 c 0.035,0 0.069,0.005 0.105,0.005 6.055,0 10.982,4.926 10.982,10.982 l 0,3.112 -10.976,0 c -0.025,0 -0.049,0.003 -0.074,0.003 l -28.902,0 0,-14.102 z m 77.048,14.1 -20.84,0 0,-3.112 c 0,-3.909 -0.837,-7.624 -2.326,-10.987 l 12.185,0 c 6.056,0 10.982,4.926 10.982,10.982 l 0,3.118 -0.001,0 z m -77.048,-30.355 0,-57.934 20.842,0 0,57.934 -20.842,0 z m 90.539,-86.026 c 0,6.096 -4.63,11.125 -10.558,11.766 l 0,-112.987 c 0,-14.224 -5.379,-27.213 -14.202,-37.05 14.429,5.257 24.761,19.111 24.761,35.336 l 0,102.935 z m 46.03,-80.206 c 0,-4.524 3.68,-8.206 8.204,-8.206 4.524,0 8.204,3.68 8.204,8.206 0,4.525 -3.68,8.205 -8.204,8.205 -4.524,0 -8.204,-3.681 -8.204,-8.205 z m 15.911,90.938 c -4.525,0 -8.205,-3.68 -8.205,-8.205 0,-4.525 3.68,-8.206 8.205,-8.206 4.524,0 8.204,3.68 8.204,8.206 10e-4,4.525 -3.679,8.205 -8.204,8.205 z"
         id="path4189" />
      <g
         id="g4191" />
      <g
         id="g4193" />
      <g
         id="g4195" />
      <g
         id="g4197" />
      <g
         id="g4199" />
      <g
         id="g4201" />
      <g
         id="g4203" />
      <g
         id="g4205" />
      <g
         id="g4207" />
      <g
         id="g4209" />
      <g
         id="g4211" />
      <g
         id="g4213" />
      <g
         id="g4215" />
      <g
         id="g4217" />
      <g
         id="g4219" />
    </g>
  </g>
  <g
     id="layer2">
    <text
       id="text4272"
       y="1014.9337"
       x="121.95423"
       style="font-style:normal;font-variant:normal;font-weight:bold;font-stretch:normal;font-size:162.5px;line-height:125%;font-family:Cabin;-inkscape-font-specification:'Cabin, Bold';text-align:start;letter-spacing:0px;word-spacing:0px;writing-mode:lr-tb;text-anchor:start;fill:#000000;fill-opacity:1;stroke:none;stroke-width:1px;stroke-linecap:butt;stroke-linejoin:miter;stroke-opacity:1"
       xml:space="preserve"><tspan
         y="1014.9337"
         x="121.95423"
         id="tspan4274">Walder</tspan></text>
  </g>
</svg>
